
<svg xmlns="http://www.w3.org/2000/svg" version="1.1" xmlns:xlink="http://www.w3.org/1999/xlink" preserveAspectRatio="none" x="0px" y="0px" width="126px" height="150px" viewBox="0 0 126 150">
<defs>
<g id="Layer4_0_FILL">
<path fill="#000000" stroke="none" d="
M 98.6 18.05
Q 94.45 13.9 88.9 11.3 82.45 8.35 74.25 6.85
L 67.4 6 58.75 6.5
Q 52.5 6.1 47.1 7.8 41.7 9.4 34.75 13.6 29.25 16.85 24.65 22.95 22.2 26.15 21 28.4 19.4 31.05 17.6 36.3 14.15 46.5 13.85 59.05 13.9 59.6 9.65 63.7 9.4712890625 63.8787109375 9.3 64.05 10.2 64.45 10.7 65.4 11.2 66.35 11 67.3 10.987109375 67.3546875 10.95 67.4
L 12.65 67
Q 12 80.5 5.85 89.05 2.95 93.2 0.55 94.8 5.75 94.9 9.3 93.1 11.3 92.2 11.95 91.3 10.95 94.6 5.4 98.95
L 0.75 102.4
Q 5.35 103.05 9.85 101.9 14.15 100.75 17.4 98.3 17.7 100.15 18.1 101.9 19.4 108.25 21.3 113.45 24.65 122.75 29.4 126.2 29.9 126.55 29.8 124.9
L 29.6 122.6 32.1 125.35
Q 34.9 128.15 38.6 129.65 62.15 138.2 86.2 129.9 89.75 128.3 92.5 124.9 94.4 122.05 94.45 122.3 94.65 123.05 94.3 124.8 93.8 126.95 93.8 127.85 97.2 125.6 99.65 122.05
L 101.4 118.9 101.95 120.9
Q 102.2 122.3 102.6 122.95 104.55 119.85 107.2 114.3 111.95 104.25 112.6 97.15 112.75 95.8 112.8 94.5 112.85 93.9 112.9 93.3 113.1 87.8 112.4 83.65 111 78.05 110.6 73.8 113.05 77.35 116.9 79.9 120.5 82.3 120.4 81.1
L 114.15 65.3
Q 112.05 58.8 111.45 51.3 109.75 40.55 108.9 37.15 107.4 31.6 104.05 25.5 101.45 20.95 98.6 18.05 Z"/>
</g>

<g id="Layer3_0_FILL">
<path fill="#000000" stroke="none" d="
M 113.7 72
Q 108.678125 70.8990234375 107.75 77.8
L 112.6 96.95
Q 119.5431640625 103.078125 124.7 101.95 118.89453125 94.6904296875 115.2 79.9
L 113.7 72
M 14.5 70.4
L 10.95 66
Q 4.6390625 72.1390625 3.8 79.6 7.4962890625 78.683203125 10.05 80.8
L 14.5 70.4 Z"/>
</g>

<g id="Layer2_0_FILL">
<path fill="#666666" stroke="none" d="
M 35.15 125.3
Q 35.3728515625 125.2591796875 35.6 125.2 48.3470703125 122.7880859375 51.5 117 45.3615234375 121.04921875 39.25 121.1
L 35.45 124.95 35.15 125.3
M 32.6 113.2
L 32.65 113.2
Q 52.758984375 112.583203125 64.9 100.75 52.660546875 108.9134765625 39.05 108.1
L 32.65 113.15 32.6 113.2 Z"/>

<path fill="#000000" stroke="none" d="
M 3.5 91.85
Q 1.6 93.95 0.55 94.75 5.65 94.8 9.35 93 11.2 92.1 12 91.2 10.9 94.5 5.35 98.8 2.65 100.85 0.7 102.35 5.15 102.95 9.45 101.85 13.75 100.8 17.35 98.15 18.8 106.8 21.25 113.35 24.65 122.6 29.4 126.1 29.85 126.45 29.75 124.8 29.55 122.9 29.55 122.5 29.85 122.7 32.05 125.25 34.85 128.05 38.55 129.6 37.94453125 129.01875 37.3 128.1 36.68125 127.2416015625 36 126.05 35.9921875 125.978125 35.95 125.9 35.766015625 125.5619140625 35.6 125.2 35.3728515625 125.2591796875 35.15 125.3
L 35.45 124.95
Q 34.4232421875 122.8314453125 33.75 120.45 32.9990234375 117.5830078125 32.8 114.35 32.71953125 113.840625 32.65 113.2
L 32.6 113.2 32.65 113.15
Q 32.404296875 110.980078125 32.25 107.2 32.194140625 105.8078125 32.15 104.2 31.95 96.95 31.3 93.15 31.2572265625 92.878515625 31.1 92.35 30.8134765625 91.3197265625 30.1 89.25 29.974609375 88.976953125 29.85 88.7
L 29.85 92.35
Q 29.85 94.2 28.3 96.1 26.6 98.15 24.5 98.15 22.05 98.1 20.3 96.4 18.5 94.75 18.25 92.35
L 18.25 92 16.75 92
Q 15.25 92 14.15 91 13.05 89.95 12.85 88.45
L 12.85 81.4 9.8 81.4
Q 7.5 87.55 3.5 91.85
M 96.8 84.55
L 96.8 84.35
Q 96.19296875 87.466015625 95 91.1 94.7146484375 91.9634765625 94.4 92.85 93.9849609375 94.01484375 93.6 95.25 93.0158203125 97.330078125 92.55 99.6 92.365234375 100.753515625 92.2 101.9 91.997265625 103.1630859375 91.85 104.45 91.45 108 90.85 114.35 89.8 122.35 87.9 126.9 86.9857421875 129.002734375 86.25 129.7 86.23984375 129.7654296875 86.2 129.8 86.1759765625 129.82578125 86.15 129.85 89.7 128.25 92.45 124.85 94.35 121.95 94.4 122.25 94.6 122.9 94.25 124.7 93.8 126.85 93.8 127.8 98.85 124.35 101.35 118.8 101.6 119.35 101.9 120.85 102.2 122.25 102.55 122.9 104.8 119.3 107.15 114.25 111.85 104.2 112.55 97.1 112.95 92.85 112.95 90.45 111.75 92 109.75 92
L 108.4 92 108.4 92.35
Q 108.2 94.8 106.45 96.45 104.65 98.1 102.2 98.15 100.1 98.15 98.4 96.1 96.8 94.2 96.8 92.35
L 96.8 84.55
M 94.7 44.2
L 94.75 44.15
Q 94.7990234375 44.15 94.85 44.1 94.9005859375 44.1015625 94.95 44.05 96.8171875 43.3001953125 97.6 46.3 97.7076171875 46.721875 97.8 47.2 97.9275390625 48.400390625 98.1 51.85
L 98.05 51.85 98 61.75 98 61.7
Q 99.7119140625 59.299609375 102.6 59.2 105.4 59.2 106.95 60.75 108.4 62.25 108.4 64.7
L 108.4 65 110.4 65 109.25 46.6
Q 108.85 43.3 107.95 39.7 103.05 25 92 17.05 85.1 12 76.15 9.7 69.9 8.05 63.25 7.9 56.65 8.05 50.4 9.7 41.5 12 34.6 17.05 23.5 25.1 18.6 39.7 17.7 43.3 17.3 46.6
L 16.15 65 18.25 65 18.25 64.7
Q 18.15 62.55 19.6 60.95 21 59.35 23.15 59.25
L 23.75 59.25
Q 26.7 59.25 28.45 61.55 31.060546875 61.1412109375 33.6 60.6 50.3875 54.125 67.15 47.65 67.538671875 47.4125 67.65 47.4 67.425 47.8875 67.2 48.35 66.5361328125 49.284375 64.9 51.1 63.85 52.275 62.55 53.65 61.1875 55.15 59.8 56.65 59.62421875 56.9048828125 59.8 57 60.694140625 57.4423828125 69.2 54.85 70.3767578125 54.496484375 71.55 54.1 75.1875 52.825 78.8 51.5 86.485546875 48.4751953125 94.7 44.2 Z"/>

<path fill="#D2D2D2" stroke="none" d="
M 94.75 44.15
L 94.7 44.2
Q 86.485546875 48.4751953125 78.8 51.5 75.1875 52.825 71.55 54.1 70.3806640625 54.5375 69.2 54.9 60.6275390625 57.5376953125 59.8 57 59.62421875 56.9048828125 59.8 56.65 61.1875 55.15 62.55 53.65 63.8423828125 52.23359375 64.9 51.05 66.51640625 49.25390625 67.2 48.35 67.425 47.8875 67.65 47.4 67.538671875 47.4125 67.15 47.65 50.3875 54.125 33.6 60.6 31.060546875 61.1412109375 28.45 61.55 27.7498046875 70.1095703125 27.7 73.4 27.7 76.3 28.15 81.4 28.45 84.85 29.75 88.3 29.931640625 88.8060546875 30.1 89.25 30.8134765625 91.3197265625 31.1 92.35 31.2572265625 92.878515625 31.3 93.15 31.95 96.95 32.15 104.2 32.194140625 105.8078125 32.25 107.2 35.692578125 107.9380859375 39.05 108.1 52.660546875 108.9134765625 64.9 100.75 52.758984375 112.583203125 32.65 113.2 32.71953125 113.840625 32.8 114.35 32.9990234375 117.5830078125 33.75 120.45 36.41796875 121.103515625 39.25 121.1 45.3615234375 121.04921875 51.5 117 48.3470703125 122.7880859375 35.6 125.2 35.766015625 125.5619140625 35.95 125.9 35.9921875 125.978125 36 126.05 36.68125 127.2416015625 37.3 128.1 37.9681640625 129.0166015625 38.6 129.6 40.95 131.85 41.5 132.45 42 133 45.05 136.6 50.7 143.25 54.45 146.05 58.45 149 62.05 149 65.3 149 70.4 145.15 71.15 144.55 76.8 139.6 78.3 138.25 80.9 135.45 84.160546875 131.9919921875 86.15 129.85 86.1759765625 129.82578125 86.2 129.8 86.23984375 129.7654296875 86.25 129.7 86.9857421875 129.002734375 87.9 126.9 89.8 122.35 90.85 114.35 91.45 108 91.85 104.45 91.997265625 103.1630859375 92.2 101.9 92.365234375 100.753515625 92.55 99.6 93.0158203125 97.330078125 93.6 95.25 93.9693359375 93.958203125 94.4 92.75 94.7162109375 91.909375 95 91.1 96.19296875 87.466015625 96.8 84.35
L 96.8 84.55
Q 96.85390625 84.2837890625 96.9 84
L 97.1 81.3
Q 97.75 75.95 98 63.35
L 98 61.7 98 61.75 98.05 51.85 98.1 51.85
Q 97.9275390625 48.400390625 97.8 47.2 97.7076171875 46.721875 97.6 46.3 96.8171875 43.3001953125 94.95 44.05 94.9005859375 44.1015625 94.85 44.1 94.7990234375 44.15 94.75 44.15 Z"/>
</g>

<g id="Layer1_0_FILL">
<path fill="#934257" stroke="none" d="
M 26.3 73.7
L 11.9 83.7
Q 11.7 113.5 9.7 121.55 7.65 129.55 10.45 134.3 9.15 141.3 19.15 140.2 24.85 139.6 27.25 132.8 29.65 123.5 26.3 73.7
M 114.4 74.35
L 99.2 82.35
Q 98.85 104.6 100.5 110.45 103.05 117.2 108.75 117.7 118.75 118.6 117.3 111.6 120 106.85 117.3 102.05 113.85 95.55 114.4 74.35 Z"/>

<path fill="#5C3344" stroke="none" d="
M 25.85 67.4
L 11.9 64 11.9 83.7 26.3 73.7
Q 26.05 70.65 25.85 67.4
M 102 47.25
L 102.75 47.25 101.4 45.25
Q 101.3564453125 46.1310546875 101.3 47
L 100.4 47
Q 99.4 68.05 99.2 82.35
L 114.4 74.35
Q 114.55 69.25 112.55 62.7
L 102 47.25 Z"/>
</g>

<g id="Layer0_0_FILL">
<path fill="#000000" stroke="none" d="
M 74.8 71.55
Q 71.904296875 71.68984375 69 71.75 66.6029296875 71.806640625 64.2 71.8
L 64.2 89.4
Q 64.428515625 93.51796875 67.05 93.25 68.8876953125 93.301171875 69 89.9
L 69 80.8
Q 69.91484375 73.8869140625 74.8 76
L 74.8 124.75
Q 74.065234375 131.818359375 79.2 131.95 84.94921875 132.2259765625 84.7 123.05 85.4775390625 71.577734375 90.7 70.7 80.2392578125 71.3619140625 74.8 71.55 Z"/>

<path fill="#FFFF99" stroke="none" d="
M 119.05 62.2
Q 118.875390625 52.536328125 111.65 53.45 61.071484375 58.4267578125 11.45 53.45
L 7.4 53.45
Q 3.0736328125 54.448828125 3.6 60.3 3.9029296875 67.723046875 8.75 67.95 36.84609375 72.064453125 64.2 71.8 66.6029296875 71.806640625 69 71.75 71.904296875 71.68984375 74.8 71.55 80.2392578125 71.3619140625 90.7 70.7 100.4603515625 69.9146484375 115.05 67.55 119.9796875 65.762890625 119.05 62.2
M 77.7 5.35
Q 78.2833984375 3.14765625 74.45 1.9 59.9736328125 -0.65390625 50.1 1.2 45.4376953125 2.0296875 44.9 5.6 59.233203125 3.2833984375 77.7 5.35 Z"/>

<path fill="#5C3344" stroke="none" d="
M 104.05 25.5
L 111.8 39.1
Q 110.7623046875 29.6990234375 106.65 20.3 102.9177734375 11.579296875 91.4 7.4 84.293359375 6.1 77.7 5.35 59.233203125 3.2833984375 44.9 5.6 40.6435546875 6.31484375 36.75 7.4 22.7958984375 10.203515625 19.15 22.3 16.4548828125 28.97578125 14.65 35.65
L 18.6 39.7 34.35 22.2 53.95 41.3 71.6 22.45 94.5 44.25 104.05 25.5 Z"/>

<path fill="#934257" stroke="none" d="
M 111.8 39.1
L 104.05 25.5 94.5 44.25 71.6 22.45 53.95 41.3 34.35 22.2 18.6 39.7 14.65 35.65
Q 12.2568359375 44.55078125 11.45 53.45 61.071484375 58.4267578125 111.65 53.45 112.625 46.2740234375 111.8 39.1 Z"/>
</g>
</defs>

<g transform="matrix( 1, 0, 0, 1, 0,0) ">
<use xlink:href="#Layer4_0_FILL"/>
</g>

<g transform="matrix( 1, 0, 0, 1, 0,0) ">
<use xlink:href="#Layer3_0_FILL"/>
</g>

<g transform="matrix( 1, 0, 0, 1, 0,0) ">
<use xlink:href="#Layer2_0_FILL"/>
</g>

<g transform="matrix( 1, 0, 0, 1, 0,0) ">
<use xlink:href="#Layer1_0_FILL"/>
</g>

<g transform="matrix( 1, 0, 0, 1, 0,0) ">
<use xlink:href="#Layer0_0_FILL"/>
</g>
</svg>
