
<svg xmlns="http://www.w3.org/2000/svg" version="1.1" xmlns:xlink="http://www.w3.org/1999/xlink" preserveAspectRatio="none" x="0px" y="0px" width="546px" height="78px" viewBox="0 0 546 78">
<defs>
<g id="Layer0_0_FILL">
<path fill="#EFCF19" stroke="none" d="
M 67.4 44.7
L 78 39 67.4 33.35 75 24.1 63.1 22.9 66.55 11.45 55.1 14.9 53.9 3 44.65 10.6 39 0 33.3 10.6 24.05 3 22.85 14.9 11.4 11.45 14.85 22.9 2.95 24.1 10.55 33.35 0 39 10.55 44.7 2.95 53.95 14.85 55.15 11.4 66.6 22.85 63.15 24.05 75.05 33.3 67.45 39 78 44.65 67.45 53.9 75.05 55.1 63.15 66.55 66.6 63.1 55.15 75 53.95 67.4 44.7 Z"/>
</g>

<g id="Layer0_1_FILL">
<path fill="#A0AAB4" stroke="none" d="
M 145.4 44.7
L 154 39 145.4 33.35 151.15 24.85 141.1 22.9 143.15 12.85 133.1 14.9 131.15 4.85 122.65 10.6 117 2 111.3 10.6 102.8 4.85 100.85 14.9 90.8 12.85 92.85 22.9 82.8 24.85 88.55 33.35 80 39 88.55 44.7 82.8 53.2 92.85 55.15 90.8 65.2 100.85 63.15 102.8 73.2 111.3 67.45 117 76 122.65 67.45 131.15 73.2 133.1 63.15 143.15 65.2 141.1 55.15 151.15 53.2 145.4 44.7 Z"/>
</g>

<g id="Layer0_2_FILL">
<path fill="#CBA27A" stroke="none" d="
M 223.4 44.7
L 230 39 223.4 33.35 227.3 25.65 219.1 22.9 219.75 14.25 211.1 14.9 208.35 6.7 200.65 10.6 195 4 189.3 10.6 181.6 6.7 178.85 14.9 170.25 14.25 170.85 22.9 162.65 25.65 166.55 33.35 160 39 166.55 44.7 162.65 52.4 170.85 55.15 170.25 63.75 178.85 63.15 181.6 71.35 189.3 67.45 195 74 200.65 67.45 208.35 71.35 211.1 63.15 219.75 63.75 219.1 55.15 227.3 52.4 223.4 44.7 Z"/>
</g>

<g id="Layer0_3_FILL">
<path fill="#AAAAAA" stroke="none" d="
M 301.4 44.7
L 306 39 301.4 33.35 303.45 26.4 297.1 22.9 296.3 15.7 289.1 14.9 285.6 8.55 278.65 10.6 273 6 267.3 10.6 260.35 8.55 256.85 14.9 249.65 15.7 248.85 22.9 242.5 26.4 244.55 33.35 240 39 244.55 44.7 242.5 51.65 248.85 55.15 249.65 62.35 256.85 63.15 260.35 69.5 267.3 67.45 273 72 278.65 67.45 285.6 69.5 289.1 63.15 296.3 62.35 297.1 55.15 303.45 51.65 301.4 44.7 Z"/>
</g>

<g id="Layer0_4_FILL">
<path fill="#BEBEBE" stroke="none" d="
M 381.05 44.7
L 383.6 39 381.05 33.35 381.25 27.15 376.7 22.9 374.5 17.1 368.7 14.9 364.45 10.4 358.25 10.6 352.6 8 346.95 10.6 340.75 10.4 336.5 14.9 330.7 17.1 328.5 22.9 323.95 27.15 324.15 33.35 321.6 39 324.15 44.7 323.95 50.9 328.5 55.15 330.7 60.95 336.5 63.15 340.75 67.65 346.95 67.45 352.6 70 358.25 67.45 364.45 67.65 368.7 63.15 374.5 60.95 376.7 55.15 381.25 50.9 381.05 44.7 Z"/>
</g>

<g id="Layer0_5_FILL">
<path fill="#CCA70F" stroke="none" d="
M 77 53.95
Q 74.45 53.35 72.05 54.7 69.75 56 69.5 58.6 72.05 59.55 74.35 58.2 76.7 56.7 77 53.95 Z"/>
</g>

<g id="Layer0_6_FILL">
<path fill="#CCA70F" stroke="none" d="
M 65.4 56.95
Q 67.7 55.7 68 53.05 68.3 50.5 66.8 48.25 64.3 49.65 63.9 52.3 63.6 55 65.4 56.95 Z"/>
</g>

<g id="Layer0_7_FILL">
<path fill="#CCA70F" stroke="none" d="
M 60.1 62.7
Q 62.55 61.75 63.2 59.2 63.9 56.6 62.65 54.25 59.95 55.3 59.2 57.9 58.55 60.55 60.1 62.7 Z"/>
</g>

<g id="Layer0_8_FILL">
<path fill="#CCA70F" stroke="none" d="
M 54 65.1
Q 56.45 64.4 57.35 61.9 58.3 59.35 57.25 56.9 54.65 57.6 53.5 60.2 52.6 62.85 54 65.1 Z"/>
</g>

<g id="Layer0_9_FILL">
<path fill="#CCA70F" stroke="none" d="
M 46.6 66.65
Q 49.3 66.65 50.85 64.55 52.45 62.4 52.2 59.75 49.4 59.75 47.6 61.85 46.05 63.95 46.6 66.65 Z"/>
</g>

<g id="Layer0_10_FILL">
<path fill="#CCA70F" stroke="none" d="
M 73.9 44.45
Q 71.45 45.35 70.25 47.75 69.05 50.15 70.25 52.45 72.85 51.85 74.1 49.45 75.2 46.9 73.9 44.45 Z"/>
</g>

<g id="Layer0_11_FILL">
<path fill="#CCA70F" stroke="none" d="
M 74.2 60.95
Q 71.9 59.55 69.3 60.2 66.75 60.75 65.7 63.2 67.85 64.8 70.45 64.25 73.2 63.45 74.2 60.95 Z"/>
</g>

<g id="Layer0_12_FILL">
<path fill="#CCA70F" stroke="none" d="
M 64.5 64.45
Q 61.85 64.45 60.3 66.55 62.1 68.65 64.7 68.65 67.4 68.55 69.1 66.25 67.15 64.45 64.5 64.45 Z"/>
</g>

<g id="Layer0_13_FILL">
<path fill="#CCA70F" stroke="none" d="
M 63.25 70.85
Q 61.9 68.55 59.4 67.8 58.25 67.4 57 67.6 55.8 67.8 54.8 68.5 55.8 71 58.35 71.85 61.1 72.6 63.25 70.85 Z"/>
</g>

<g id="Layer0_14_FILL">
<path fill="#CCA70F" stroke="none" d="
M 56 72.85
Q 54.9 70.4 52.45 69.3 50.1 68.2 47.8 69.45 48.55 72.1 51 73.2 53.5 74.2 56 72.85 Z"/>
</g>

<g id="Layer0_15_FILL">
<path fill="#CCA70F" stroke="none" d="
M 65.45 61.2
Q 69.35 57.55 70.3 53.85
L 69 53.55
Q 68 57.2 64.35 60.5 57.05 67.1 43.05 67.2
L 43.05 68.6
Q 57.75 68.45 65.45 61.2 Z"/>
</g>

<g id="Layer0_16_FILL">
<path fill="#CCA70F" stroke="none" d="
M 3.6 58.2
Q 5.9 59.55 8.45 58.6 8.2 56 5.9 54.7 3.5 53.35 1 53.95 1.25 56.7 3.6 58.2 Z"/>
</g>

<g id="Layer0_17_FILL">
<path fill="#CCA70F" stroke="none" d="
M 10 53.05
Q 10.25 55.7 12.55 56.95 14.35 55 14.1 52.3 13.55 49.55 11.15 48.25 9.6 50.4 10 53.05 Z"/>
</g>

<g id="Layer0_18_FILL">
<path fill="#CCA70F" stroke="none" d="
M 14.75 59.2
Q 15.4 61.75 17.85 62.7 19.4 60.55 18.75 57.9 18 55.3 15.3 54.25 14.05 56.6 14.75 59.2 Z"/>
</g>

<g id="Layer0_19_FILL">
<path fill="#CCA70F" stroke="none" d="
M 20.55 61.95
Q 21.45 64.45 24 65.1 25.3 62.75 24.45 60.25 23.3 57.65 20.65 56.95 19.6 59.5 20.55 61.95 Z"/>
</g>

<g id="Layer0_20_FILL">
<path fill="#CCA70F" stroke="none" d="
M 27.05 64.55
Q 28.6 66.65 31.3 66.65 31.85 63.95 30.3 61.85 28.5 59.75 25.75 59.75 25.45 62.4 27.05 64.55 Z"/>
</g>

<g id="Layer0_21_FILL">
<path fill="#CCA70F" stroke="none" d="
M 4.05 44.4
Q 2.75 46.8 3.8 49.4 5.05 51.85 7.7 52.45 8.9 50.15 7.7 47.75 6.55 45.4 4.05 44.4 Z"/>
</g>

<g id="Layer0_22_FILL">
<path fill="#CCA70F" stroke="none" d="
M 12.25 63.15
Q 11.2 60.7 8.65 60.2 6.1 59.6 3.75 60.9 4.8 63.5 7.5 64.2 10.15 64.75 12.25 63.15 Z"/>
</g>

<g id="Layer0_23_FILL">
<path fill="#CCA70F" stroke="none" d="
M 13.25 68.65
Q 15.85 68.65 17.65 66.55 16.1 64.4 13.5 64.5 10.85 64.45 8.85 66.25 10.55 68.55 13.25 68.65 Z"/>
</g>

<g id="Layer0_24_FILL">
<path fill="#CCA70F" stroke="none" d="
M 23.15 68.55
Q 21.1 67 18.55 67.8 16.05 68.55 14.65 70.9 16.95 72.6 19.6 71.9 22.15 71.05 23.15 68.55 Z"/>
</g>

<g id="Layer0_25_FILL">
<path fill="#CCA70F" stroke="none" d="
M 30.15 69.45
Q 27.85 68.2 25.5 69.3 23.1 70.4 22 72.85 24.5 74.2 27 73.2 29.45 72 30.15 69.45 Z"/>
</g>

<g id="Layer0_26_FILL">
<path fill="#CCA70F" stroke="none" d="
M 9.95 55.9
Q 9.15 54.4 9 53.55
L 7.65 53.85
Q 7.65 53.9 8.6 56.2 10.05 58.9 12.5 61.2 20.25 68.45 34.9 68.6
L 34.9 67.2
Q 20.9 67.1 13.65 60.5 11.3 58.4 9.95 55.9 Z"/>
</g>

<g id="Layer0_27_FILL">
<path fill="#78828C" stroke="none" d="
M 154 54.05
Q 151.4 53.5 149.2 54.8 146.95 56.1 146.7 58.6 149.1 59.55 151.45 58.25 153.7 56.8 154 54.05 Z"/>
</g>

<g id="Layer0_28_FILL">
<path fill="#78828C" stroke="none" d="
M 142.7 57
Q 144.95 55.8 145.25 53.25 145.55 50.6 144.05 48.55 141.65 49.8 141.2 52.5 140.95 55.2 142.7 57 Z"/>
</g>

<g id="Layer0_29_FILL">
<path fill="#78828C" stroke="none" d="
M 137.55 62.6
Q 139.9 61.65 140.55 59.2 141.25 56.65 140 54.4 137.55 55.35 136.65 57.95 136.05 60.45 137.55 62.6 Z"/>
</g>

<g id="Layer0_30_FILL">
<path fill="#78828C" stroke="none" d="
M 131.55 64.95
Q 134.05 64.2 134.85 61.8 135.75 59.45 134.8 57 132.2 57.7 131.1 60.25 130.25 62.6 131.55 64.95 Z"/>
</g>

<g id="Layer0_31_FILL">
<path fill="#78828C" stroke="none" d="
M 124.45 66.4
Q 127.05 66.5 128.55 64.4 130.1 62.35 129.85 59.75 127.15 59.65 125.4 61.75 123.9 63.8 124.45 66.4 Z"/>
</g>

<g id="Layer0_32_FILL">
<path fill="#78828C" stroke="none" d="
M 151 44.8
Q 148.55 45.75 147.4 48 146.3 50.3 147.4 52.55 149.95 52 151.15 49.7 152.25 47.15 151 44.8 Z"/>
</g>

<g id="Layer0_33_FILL">
<path fill="#78828C" stroke="none" d="
M 151.25 60.8
Q 148.95 59.55 146.5 60.15 145.35 60.4 144.4 61.15 143.45 61.9 143 63 145.1 64.6 147.6 64 150.25 63.3 151.25 60.8 Z"/>
</g>

<g id="Layer0_34_FILL">
<path fill="#78828C" stroke="none" d="
M 141.8 64.25
Q 139.2 64.25 137.75 66.35 139.45 68.35 142.05 68.35 144.7 68.25 146.3 66 144.4 64.25 141.8 64.25 Z"/>
</g>

<g id="Layer0_35_FILL">
<path fill="#78828C" stroke="none" d="
M 140.65 70.6
Q 139.3 68.3 136.85 67.55 134.4 66.75 132.35 68.25 133.4 70.7 135.85 71.5 138.4 72.2 140.65 70.6 Z"/>
</g>

<g id="Layer0_36_FILL">
<path fill="#78828C" stroke="none" d="
M 133.5 72.5
Q 132.5 70.1 130.1 69 127.75 67.95 125.55 69.2 126.25 71.65 128.6 72.85 131.2 73.8 133.5 72.5 Z"/>
</g>

<g id="Layer0_37_FILL">
<path fill="#78828C" stroke="none" d="
M 120.95 67.05
L 120.95 68.35
Q 135.2 68.25 142.75 61.15 146.55 57.6 147.5 54
L 146.2 53.7
Q 145.25 57.25 141.65 60.5 134.55 66.95 120.95 67.05 Z"/>
</g>

<g id="Layer0_38_FILL">
<path fill="#78828C" stroke="none" d="
M 82.5 58.25
Q 84.85 59.55 87.25 58.6 87 56.1 84.75 54.8 82.55 53.5 80 54.05 80.25 56.75 82.5 58.25 Z"/>
</g>

<g id="Layer0_39_FILL">
<path fill="#78828C" stroke="none" d="
M 88.7 53.25
Q 89 55.8 91.25 57 93 55.2 92.75 52.5 92.25 49.8 89.9 48.55 88.4 50.6 88.7 53.25 Z"/>
</g>

<g id="Layer0_40_FILL">
<path fill="#78828C" stroke="none" d="
M 93.45 59.2
Q 94 61.65 96.4 62.6 97.9 60.45 97.3 57.95 96.5 55.4 94 54.4 92.75 56.65 93.45 59.2 Z"/>
</g>

<g id="Layer0_41_FILL">
<path fill="#78828C" stroke="none" d="
M 99.1 61.85
Q 99.9 64.2 102.4 64.95 103.7 62.6 102.85 60.25 101.8 57.8 99.15 57 98.2 59.5 99.1 61.85 Z"/>
</g>

<g id="Layer0_42_FILL">
<path fill="#78828C" stroke="none" d="
M 105.4 64.4
Q 106.9 66.45 109.5 66.45 110.05 63.75 108.55 61.8 106.85 59.7 104.1 59.8 103.85 62.4 105.4 64.4 Z"/>
</g>

<g id="Layer0_43_FILL">
<path fill="#78828C" stroke="none" d="
M 86.5 48.05
Q 85.45 45.8 83 44.8 81.7 47.15 82.8 49.7 83.95 51.95 86.5 52.6 87.7 50.35 86.5 48.05 Z"/>
</g>

<g id="Layer0_44_FILL">
<path fill="#78828C" stroke="none" d="
M 91 63
Q 89.95 60.65 87.45 60.15 84.9 59.6 82.7 60.85 83.7 63.3 86.35 64.1 88.95 64.6 91 63 Z"/>
</g>

<g id="Layer0_45_FILL">
<path fill="#78828C" stroke="none" d="
M 92 68.4
Q 94.5 68.3 96.25 66.35 94.65 64.35 92.15 64.35 89.55 64.35 87.65 66.1 89.25 68.3 92 68.4 Z"/>
</g>

<g id="Layer0_46_FILL">
<path fill="#78828C" stroke="none" d="
M 101.55 68.25
Q 99.55 66.75 97.05 67.55 94.65 68.35 93.3 70.55 95.5 72.2 98.1 71.5 100.6 70.7 101.55 68.25 Z"/>
</g>

<g id="Layer0_47_FILL">
<path fill="#78828C" stroke="none" d="
M 108.4 69.2
Q 106.2 67.95 103.85 69 101.45 70.1 100.45 72.45 102.8 73.85 105.35 72.8 107.7 71.7 108.4 69.2 Z"/>
</g>

<g id="Layer0_48_FILL">
<path fill="#78828C" stroke="none" d="
M 88.7 55.95
Q 88.1 54.8 87.75 53.7
L 86.45 54
Q 86.45 54.05 87.4 56.3 88.8 58.95 91.2 61.15 98.75 68.25 113 68.35
L 113 67
Q 99.4 66.9 92.3 60.45 90.05 58.4 88.7 55.95 Z"/>
</g>

<g id="Layer0_49_FILL">
<path fill="#90682A" stroke="none" d="
M 231 54.25
Q 228.5 53.7 226.35 54.95 224.15 56.15 223.9 58.65 226.3 59.5 228.5 58.25 230.7 56.85 231 54.25 Z"/>
</g>

<g id="Layer0_50_FILL">
<path fill="#90682A" stroke="none" d="
M 220 57.05
Q 222.15 55.95 222.5 53.4 222.8 50.85 221.35 48.85 219.05 50 218.55 52.65 218.3 55.3 220 57.05 Z"/>
</g>

<g id="Layer0_51_FILL">
<path fill="#90682A" stroke="none" d="
M 215 62.5
Q 217.35 61.6 217.9 59.2 218.6 56.8 217.4 54.5 214.95 55.45 214.1 57.95 213.55 60.5 215 62.5 Z"/>
</g>

<g id="Layer0_52_FILL">
<path fill="#90682A" stroke="none" d="
M 209.15 64.8
Q 211.65 64.05 212.4 61.75 213.25 59.45 212.3 57.05 209.75 57.75 208.75 60.2 207.9 62.6 209.15 64.8 Z"/>
</g>

<g id="Layer0_53_FILL">
<path fill="#90682A" stroke="none" d="
M 207.5 59.75
Q 204.85 59.65 203.15 61.75 201.7 63.75 202.25 66.25 204.75 66.35 206.25 64.25 207.75 62.2 207.5 59.75 Z"/>
</g>

<g id="Layer0_54_FILL">
<path fill="#90682A" stroke="none" d="
M 228.05 45.2
Q 225.7 46.05 224.6 48.35 223.5 50.6 224.6 52.8 227.05 52.2 228.25 49.95 229.3 47.45 228.05 45.2 Z"/>
</g>

<g id="Layer0_55_FILL">
<path fill="#90682A" stroke="none" d="
M 228.35 60.8
Q 226.2 59.55 223.7 60.1 221.25 60.65 220.3 62.95 222.25 64.45 224.8 63.95 227.3 63.25 228.35 60.8 Z"/>
</g>

<g id="Layer0_56_FILL">
<path fill="#90682A" stroke="none" d="
M 219.15 64.2
Q 216.6 64.2 215.15 66.2 216.85 68.1 219.35 68.2 222 68.05 223.5 65.9 221.65 64.2 219.15 64.2 Z"/>
</g>

<g id="Layer0_57_FILL">
<path fill="#90682A" stroke="none" d="
M 218 70.25
Q 216.75 68.05 214.35 67.35 212 66.55 210 68 210.95 70.35 213.35 71.2 216 71.85 218 70.25 Z"/>
</g>

<g id="Layer0_58_FILL">
<path fill="#90682A" stroke="none" d="
M 211.05 72.1
Q 210.05 69.75 207.75 68.75 205.5 67.7 203.35 68.9 203.95 71.35 206.35 72.45 208.8 73.45 211.05 72.1 Z"/>
</g>

<g id="Layer0_59_FILL">
<path fill="#90682A" stroke="none" d="
M 198.85 66.85
L 198.85 68.1
Q 212.75 68 220.05 61.1 223.75 57.65 224.65 54.15
L 223.4 53.8
Q 222.45 57.3 219 60.45 212.1 66.7 198.85 66.85 Z"/>
</g>

<g id="Layer0_60_FILL">
<path fill="#90682A" stroke="none" d="
M 166.05 58.6
Q 165.8 56.15 163.6 54.9 161.4 53.65 159 54.2 159.25 56.8 161.45 58.2 163.7 59.45 166.05 58.6 Z"/>
</g>

<g id="Layer0_61_FILL">
<path fill="#90682A" stroke="none" d="
M 167.5 53.4
Q 167.85 55.95 170 57.05 171.7 55.2 171.4 52.65 171 50.05 168.65 48.85 167.2 50.85 167.5 53.4 Z"/>
</g>

<g id="Layer0_62_FILL">
<path fill="#90682A" stroke="none" d="
M 172.05 59.2
Q 172.6 61.65 175 62.5 176.4 60.45 175.85 57.95 175.1 55.5 172.55 54.5 171.4 56.7 172.05 59.2 Z"/>
</g>

<g id="Layer0_63_FILL">
<path fill="#90682A" stroke="none" d="
M 177.55 61.7
Q 178.35 64.1 180.8 64.8 182.05 62.6 181.2 60.2 180.15 57.7 177.65 57 176.7 59.4 177.55 61.7 Z"/>
</g>

<g id="Layer0_64_FILL">
<path fill="#90682A" stroke="none" d="
M 183.75 64.2
Q 185.15 66.25 187.7 66.25 188.25 63.7 186.8 61.7 185.1 59.6 182.45 59.7 182.2 62.2 183.75 64.2 Z"/>
</g>

<g id="Layer0_65_FILL">
<path fill="#90682A" stroke="none" d="
M 165.35 52.8
Q 166.45 50.6 165.35 48.35 164.15 46.05 161.9 45.2 160.6 47.55 161.7 49.95 162.8 52.15 165.35 52.8 Z"/>
</g>

<g id="Layer0_66_FILL">
<path fill="#90682A" stroke="none" d="
M 169.7 62.95
Q 168.65 60.65 166.25 60.1 163.75 59.55 161.6 60.8 162.6 63.25 165.15 63.95 167.6 64.5 169.7 62.95 Z"/>
</g>

<g id="Layer0_67_FILL">
<path fill="#90682A" stroke="none" d="
M 170.55 68.15
Q 173.1 68.15 174.8 66.2 173.3 64.1 170.8 64.2 168.3 64.2 166.4 65.85 167.85 68 170.55 68.15 Z"/>
</g>

<g id="Layer0_68_FILL">
<path fill="#90682A" stroke="none" d="
M 180 68
Q 177.95 66.55 175.6 67.35 173.2 68.15 172 70.25 174 71.85 176.6 71.2 179 70.35 180 68 Z"/>
</g>

<g id="Layer0_69_FILL">
<path fill="#90682A" stroke="none" d="
M 186.65 68.9
Q 184.5 67.7 182.2 68.75 179.95 69.75 178.9 72.1 181.15 73.4 183.65 72.45 185.95 71.35 186.65 68.9 Z"/>
</g>

<g id="Layer0_70_FILL">
<path fill="#90682A" stroke="none" d="
M 167.5 56.05
Q 166.85 54.8 166.55 53.8
L 165.3 54.15
Q 165.3 54.2 166.2 56.35 167.6 58.95 169.9 61.1 177.25 68 191.1 68.15
L 191.1 66.8
Q 177.85 66.7 170.95 60.45 168.75 58.45 167.5 56.05 Z"/>
</g>

<g id="Layer0_71_FILL">
<path fill="#828282" stroke="none" d="
M 307.95 54.3
Q 305.65 53.85 303.45 55 301.35 56.2 301.1 58.6 303.45 59.5 305.55 58.25 307.7 56.95 307.95 54.3 Z"/>
</g>

<g id="Layer0_72_FILL">
<path fill="#828282" stroke="none" d="
M 297.3 57.15
Q 299.45 55.95 299.7 53.55 300 51.15 298.6 49.1 296.35 50.4 295.9 52.85 295.65 55.3 297.3 57.15 Z"/>
</g>

<g id="Layer0_73_FILL">
<path fill="#828282" stroke="none" d="
M 292.45 62.45
Q 294.7 61.6 295.25 59.2 295.95 56.85 294.75 54.65 292.4 55.5 291.6 58 291 60.35 292.45 62.45 Z"/>
</g>

<g id="Layer0_74_FILL">
<path fill="#828282" stroke="none" d="
M 286.75 64.6
Q 289.1 63.95 289.9 61.7 290.75 59.45 289.85 57.1 287.4 57.8 286.35 60.1 285.55 62.45 286.75 64.6 Z"/>
</g>

<g id="Layer0_75_FILL">
<path fill="#828282" stroke="none" d="
M 281 61.6
Q 279.5 63.65 280.1 66.05 282.5 66.05 283.9 64.1 285.4 62.15 285.15 59.7 282.6 59.7 281 61.6 Z"/>
</g>

<g id="Layer0_76_FILL">
<path fill="#828282" stroke="none" d="
M 305.15 45.55
Q 302.85 46.5 301.75 48.65 300.65 50.8 301.75 52.95 304.15 52.4 305.35 50.2 306.35 47.9 305.15 45.55 Z"/>
</g>

<g id="Layer0_77_FILL">
<path fill="#828282" stroke="none" d="
M 305.45 60.75
Q 303.25 59.55 300.9 60.1 298.45 60.6 297.6 62.85 299.5 64.35 301.95 63.85 304.4 63.15 305.45 60.75 Z"/>
</g>

<g id="Layer0_78_FILL">
<path fill="#828282" stroke="none" d="
M 296.45 64
Q 294.05 64 292.6 66 294.15 67.95 296.65 67.95 299.25 67.85 300.7 65.75 298.95 64.1 296.45 64 Z"/>
</g>

<g id="Layer0_79_FILL">
<path fill="#828282" stroke="none" d="
M 295.35 69.95
Q 294.1 67.85 291.8 67.1 289.5 66.3 287.55 67.75 288.45 70.05 290.85 70.85 293.35 71.5 295.35 69.95 Z"/>
</g>

<g id="Layer0_80_FILL">
<path fill="#828282" stroke="none" d="
M 288.6 71.75
Q 287.6 69.5 285.4 68.5 283.15 67.45 281.1 68.65 281.75 71 284 72.1 286.3 73 288.6 71.75 Z"/>
</g>

<g id="Layer0_81_FILL">
<path fill="#828282" stroke="none" d="
M 276.75 66.6
L 276.75 67.85
Q 290.25 67.75 297.35 61.05 300.95 57.7 301.85 54.25
L 300.6 53.95
Q 299.7 57.35 296.35 60.4 289.65 66.5 276.75 66.6 Z"/>
</g>

<g id="Layer0_82_FILL">
<path fill="#828282" stroke="none" d="
M 238 54.35
Q 238.25 56.9 240.35 58.25 242.5 59.45 244.85 58.65 244.6 56.25 242.5 55.05 240.35 53.8 238 54.35 Z"/>
</g>

<g id="Layer0_83_FILL">
<path fill="#828282" stroke="none" d="
M 246.25 53.55
Q 246.5 56 248.65 57.1 250.3 55.3 250.05 52.85 249.6 50.4 247.35 49.1 245.95 51.15 246.25 53.55 Z"/>
</g>

<g id="Layer0_84_FILL">
<path fill="#828282" stroke="none" d="
M 250.65 59.2
Q 251.3 61.55 253.5 62.4 254.95 60.3 254.35 58 253.55 55.5 251.15 54.65 250.05 56.85 250.65 59.2 Z"/>
</g>

<g id="Layer0_85_FILL">
<path fill="#828282" stroke="none" d="
M 256.05 61.7
Q 256.85 64 259.2 64.65 260.35 62.45 259.6 60.15 258.55 57.75 256.1 57.15 255.2 59.5 256.05 61.7 Z"/>
</g>

<g id="Layer0_86_FILL">
<path fill="#828282" stroke="none" d="
M 262 64.1
Q 263.45 66.1 265.9 66 266.45 63.7 265 61.6 263.25 59.65 260.75 59.7 260.5 62.15 262 64.1 Z"/>
</g>

<g id="Layer0_87_FILL">
<path fill="#828282" stroke="none" d="
M 244.15 52.95
Q 245.25 50.8 244.15 48.65 243.05 46.5 240.8 45.55 239.6 47.9 240.6 50.2 241.8 52.4 244.15 52.95 Z"/>
</g>

<g id="Layer0_88_FILL">
<path fill="#828282" stroke="none" d="
M 248.35 62.8
Q 247.4 60.55 245.05 60.1 242.6 59.55 240.55 60.75 241.5 63.1 244 63.8 246.3 64.35 248.35 62.8 Z"/>
</g>

<g id="Layer0_89_FILL">
<path fill="#828282" stroke="none" d="
M 249.3 67.9
Q 251.7 67.9 253.35 66 251.9 64 249.5 64 247.05 64 245.25 65.7 246.65 67.75 249.3 67.9 Z"/>
</g>

<g id="Layer0_90_FILL">
<path fill="#828282" stroke="none" d="
M 258.4 67.75
Q 256.45 66.3 254.15 67.1 251.85 67.85 250.6 69.95 252.6 71.5 255.1 70.85 257.5 70.05 258.4 67.75 Z"/>
</g>

<g id="Layer0_91_FILL">
<path fill="#828282" stroke="none" d="
M 264.85 68.65
Q 262.8 67.45 260.55 68.5 258.35 69.5 257.35 71.75 259.6 73.05 261.95 72.1 264.2 71 264.85 68.65 Z"/>
</g>

<g id="Layer0_92_FILL">
<path fill="#828282" stroke="none" d="
M 246.25 56.15
Q 245.5 54.75 245.35 53.95
L 244.1 54.25
Q 244.1 54.3 245 56.4 246.3 58.9 248.55 61.05 255.7 67.75 269.2 67.85
L 269.2 66.55
Q 256.3 66.45 249.65 60.4 247.5 58.45 246.25 56.15 Z"/>
</g>

<g id="Layer0_93_FILL">
<path fill="#D2D2D2" stroke="none" d="
M 459 39
Q 459 26.6 450.2 17.8 441.4 9 429 9 416.55 9 407.8 17.8 399 26.6 399 39 399 51.45 407.8 60.25 416.55 69 429 69 441.4 69 450.2 60.25 459 51.45 459 39 Z"/>
</g>

<g id="Layer0_94_FILL">
<path fill="#393069" stroke="none" d="
M 540.45 45.7
L 546 39 540.45 32.35 543 24.1 535.35 20.05 534.55 11.45 525.95 10.65 521.9 3 513.65 5.55 507 0 500.3 5.55 492.05 3 488 10.65 479.4 11.45 478.6 20.05 470.95 24.1 473.5 32.35 468 39 473.5 45.7 470.95 53.95 478.6 58 479.4 66.6 488 67.4 492.05 75.05 500.3 72.5 507 78 513.65 72.5 521.9 75.05 525.95 67.4 534.55 66.6 535.35 58 543 53.95 540.45 45.7 Z"/>
</g>
</defs>

<g transform="matrix( 1, 0, 0, 1, 0,0) ">
<use xlink:href="#Layer0_0_FILL"/>
</g>

<g transform="matrix( 1, 0, 0, 1, 0,0) ">
<use xlink:href="#Layer0_1_FILL"/>
</g>

<g transform="matrix( 1, 0, 0, 1, 0,0) ">
<use xlink:href="#Layer0_2_FILL"/>
</g>

<g transform="matrix( 1, 0, 0, 1, 0,0) ">
<use xlink:href="#Layer0_3_FILL"/>
</g>

<g transform="matrix( 1, 0, 0, 1, 0,0) ">
<use xlink:href="#Layer0_4_FILL"/>
</g>

<g transform="matrix( 1, 0, 0, 1, 0,0) ">
<use xlink:href="#Layer0_5_FILL"/>
</g>

<g transform="matrix( 1, 0, 0, 1, 0,0) ">
<use xlink:href="#Layer0_6_FILL"/>
</g>

<g transform="matrix( 1, 0, 0, 1, 0,0) ">
<use xlink:href="#Layer0_7_FILL"/>
</g>

<g transform="matrix( 1, 0, 0, 1, 0,0) ">
<use xlink:href="#Layer0_8_FILL"/>
</g>

<g transform="matrix( 1, 0, 0, 1, 0,0) ">
<use xlink:href="#Layer0_9_FILL"/>
</g>

<g transform="matrix( 1, 0, 0, 1, 0,0) ">
<use xlink:href="#Layer0_10_FILL"/>
</g>

<g transform="matrix( 1, 0, 0, 1, 0,0) ">
<use xlink:href="#Layer0_11_FILL"/>
</g>

<g transform="matrix( 1, 0, 0, 1, 0,0) ">
<use xlink:href="#Layer0_12_FILL"/>
</g>

<g transform="matrix( 1, 0, 0, 1, 0,0) ">
<use xlink:href="#Layer0_13_FILL"/>
</g>

<g transform="matrix( 1, 0, 0, 1, 0,0) ">
<use xlink:href="#Layer0_14_FILL"/>
</g>

<g transform="matrix( 1, 0, 0, 1, 0,0) ">
<use xlink:href="#Layer0_15_FILL"/>
</g>

<g transform="matrix( 1, 0, 0, 1, 0,0) ">
<use xlink:href="#Layer0_16_FILL"/>
</g>

<g transform="matrix( 1, 0, 0, 1, 0,0) ">
<use xlink:href="#Layer0_17_FILL"/>
</g>

<g transform="matrix( 1, 0, 0, 1, 0,0) ">
<use xlink:href="#Layer0_18_FILL"/>
</g>

<g transform="matrix( 1, 0, 0, 1, 0,0) ">
<use xlink:href="#Layer0_19_FILL"/>
</g>

<g transform="matrix( 1, 0, 0, 1, 0,0) ">
<use xlink:href="#Layer0_20_FILL"/>
</g>

<g transform="matrix( 1, 0, 0, 1, 0,0) ">
<use xlink:href="#Layer0_21_FILL"/>
</g>

<g transform="matrix( 1, 0, 0, 1, 0,0) ">
<use xlink:href="#Layer0_22_FILL"/>
</g>

<g transform="matrix( 1, 0, 0, 1, 0,0) ">
<use xlink:href="#Layer0_23_FILL"/>
</g>

<g transform="matrix( 1, 0, 0, 1, 0,0) ">
<use xlink:href="#Layer0_24_FILL"/>
</g>

<g transform="matrix( 1, 0, 0, 1, 0,0) ">
<use xlink:href="#Layer0_25_FILL"/>
</g>

<g transform="matrix( 1, 0, 0, 1, 0,0) ">
<use xlink:href="#Layer0_26_FILL"/>
</g>

<g transform="matrix( 1, 0, 0, 1, 0,0) ">
<use xlink:href="#Layer0_27_FILL"/>
</g>

<g transform="matrix( 1, 0, 0, 1, 0,0) ">
<use xlink:href="#Layer0_28_FILL"/>
</g>

<g transform="matrix( 1, 0, 0, 1, 0,0) ">
<use xlink:href="#Layer0_29_FILL"/>
</g>

<g transform="matrix( 1, 0, 0, 1, 0,0) ">
<use xlink:href="#Layer0_30_FILL"/>
</g>

<g transform="matrix( 1, 0, 0, 1, 0,0) ">
<use xlink:href="#Layer0_31_FILL"/>
</g>

<g transform="matrix( 1, 0, 0, 1, 0,0) ">
<use xlink:href="#Layer0_32_FILL"/>
</g>

<g transform="matrix( 1, 0, 0, 1, 0,0) ">
<use xlink:href="#Layer0_33_FILL"/>
</g>

<g transform="matrix( 1, 0, 0, 1, 0,0) ">
<use xlink:href="#Layer0_34_FILL"/>
</g>

<g transform="matrix( 1, 0, 0, 1, 0,0) ">
<use xlink:href="#Layer0_35_FILL"/>
</g>

<g transform="matrix( 1, 0, 0, 1, 0,0) ">
<use xlink:href="#Layer0_36_FILL"/>
</g>

<g transform="matrix( 1, 0, 0, 1, 0,0) ">
<use xlink:href="#Layer0_37_FILL"/>
</g>

<g transform="matrix( 1, 0, 0, 1, 0,0) ">
<use xlink:href="#Layer0_38_FILL"/>
</g>

<g transform="matrix( 1, 0, 0, 1, 0,0) ">
<use xlink:href="#Layer0_39_FILL"/>
</g>

<g transform="matrix( 1, 0, 0, 1, 0,0) ">
<use xlink:href="#Layer0_40_FILL"/>
</g>

<g transform="matrix( 1, 0, 0, 1, 0,0) ">
<use xlink:href="#Layer0_41_FILL"/>
</g>

<g transform="matrix( 1, 0, 0, 1, 0,0) ">
<use xlink:href="#Layer0_42_FILL"/>
</g>

<g transform="matrix( 1, 0, 0, 1, 0,0) ">
<use xlink:href="#Layer0_43_FILL"/>
</g>

<g transform="matrix( 1, 0, 0, 1, 0,0) ">
<use xlink:href="#Layer0_44_FILL"/>
</g>

<g transform="matrix( 1, 0, 0, 1, 0,0) ">
<use xlink:href="#Layer0_45_FILL"/>
</g>

<g transform="matrix( 1, 0, 0, 1, 0,0) ">
<use xlink:href="#Layer0_46_FILL"/>
</g>

<g transform="matrix( 1, 0, 0, 1, 0,0) ">
<use xlink:href="#Layer0_47_FILL"/>
</g>

<g transform="matrix( 1, 0, 0, 1, 0,0) ">
<use xlink:href="#Layer0_48_FILL"/>
</g>

<g transform="matrix( 1, 0, 0, 1, 0,0) ">
<use xlink:href="#Layer0_49_FILL"/>
</g>

<g transform="matrix( 1, 0, 0, 1, 0,0) ">
<use xlink:href="#Layer0_50_FILL"/>
</g>

<g transform="matrix( 1, 0, 0, 1, 0,0) ">
<use xlink:href="#Layer0_51_FILL"/>
</g>

<g transform="matrix( 1, 0, 0, 1, 0,0) ">
<use xlink:href="#Layer0_52_FILL"/>
</g>

<g transform="matrix( 1, 0, 0, 1, 0,0) ">
<use xlink:href="#Layer0_53_FILL"/>
</g>

<g transform="matrix( 1, 0, 0, 1, 0,0) ">
<use xlink:href="#Layer0_54_FILL"/>
</g>

<g transform="matrix( 1, 0, 0, 1, 0,0) ">
<use xlink:href="#Layer0_55_FILL"/>
</g>

<g transform="matrix( 1, 0, 0, 1, 0,0) ">
<use xlink:href="#Layer0_56_FILL"/>
</g>

<g transform="matrix( 1, 0, 0, 1, 0,0) ">
<use xlink:href="#Layer0_57_FILL"/>
</g>

<g transform="matrix( 1, 0, 0, 1, 0,0) ">
<use xlink:href="#Layer0_58_FILL"/>
</g>

<g transform="matrix( 1, 0, 0, 1, 0,0) ">
<use xlink:href="#Layer0_59_FILL"/>
</g>

<g transform="matrix( 1, 0, 0, 1, 0,0) ">
<use xlink:href="#Layer0_60_FILL"/>
</g>

<g transform="matrix( 1, 0, 0, 1, 0,0) ">
<use xlink:href="#Layer0_61_FILL"/>
</g>

<g transform="matrix( 1, 0, 0, 1, 0,0) ">
<use xlink:href="#Layer0_62_FILL"/>
</g>

<g transform="matrix( 1, 0, 0, 1, 0,0) ">
<use xlink:href="#Layer0_63_FILL"/>
</g>

<g transform="matrix( 1, 0, 0, 1, 0,0) ">
<use xlink:href="#Layer0_64_FILL"/>
</g>

<g transform="matrix( 1, 0, 0, 1, 0,0) ">
<use xlink:href="#Layer0_65_FILL"/>
</g>

<g transform="matrix( 1, 0, 0, 1, 0,0) ">
<use xlink:href="#Layer0_66_FILL"/>
</g>

<g transform="matrix( 1, 0, 0, 1, 0,0) ">
<use xlink:href="#Layer0_67_FILL"/>
</g>

<g transform="matrix( 1, 0, 0, 1, 0,0) ">
<use xlink:href="#Layer0_68_FILL"/>
</g>

<g transform="matrix( 1, 0, 0, 1, 0,0) ">
<use xlink:href="#Layer0_69_FILL"/>
</g>

<g transform="matrix( 1, 0, 0, 1, 0,0) ">
<use xlink:href="#Layer0_70_FILL"/>
</g>

<g transform="matrix( 1, 0, 0, 1, 0,0) ">
<use xlink:href="#Layer0_71_FILL"/>
</g>

<g transform="matrix( 1, 0, 0, 1, 0,0) ">
<use xlink:href="#Layer0_72_FILL"/>
</g>

<g transform="matrix( 1, 0, 0, 1, 0,0) ">
<use xlink:href="#Layer0_73_FILL"/>
</g>

<g transform="matrix( 1, 0, 0, 1, 0,0) ">
<use xlink:href="#Layer0_74_FILL"/>
</g>

<g transform="matrix( 1, 0, 0, 1, 0,0) ">
<use xlink:href="#Layer0_75_FILL"/>
</g>

<g transform="matrix( 1, 0, 0, 1, 0,0) ">
<use xlink:href="#Layer0_76_FILL"/>
</g>

<g transform="matrix( 1, 0, 0, 1, 0,0) ">
<use xlink:href="#Layer0_77_FILL"/>
</g>

<g transform="matrix( 1, 0, 0, 1, 0,0) ">
<use xlink:href="#Layer0_78_FILL"/>
</g>

<g transform="matrix( 1, 0, 0, 1, 0,0) ">
<use xlink:href="#Layer0_79_FILL"/>
</g>

<g transform="matrix( 1, 0, 0, 1, 0,0) ">
<use xlink:href="#Layer0_80_FILL"/>
</g>

<g transform="matrix( 1, 0, 0, 1, 0,0) ">
<use xlink:href="#Layer0_81_FILL"/>
</g>

<g transform="matrix( 1, 0, 0, 1, 0,0) ">
<use xlink:href="#Layer0_82_FILL"/>
</g>

<g transform="matrix( 1, 0, 0, 1, 0,0) ">
<use xlink:href="#Layer0_83_FILL"/>
</g>

<g transform="matrix( 1, 0, 0, 1, 0,0) ">
<use xlink:href="#Layer0_84_FILL"/>
</g>

<g transform="matrix( 1, 0, 0, 1, 0,0) ">
<use xlink:href="#Layer0_85_FILL"/>
</g>

<g transform="matrix( 1, 0, 0, 1, 0,0) ">
<use xlink:href="#Layer0_86_FILL"/>
</g>

<g transform="matrix( 1, 0, 0, 1, 0,0) ">
<use xlink:href="#Layer0_87_FILL"/>
</g>

<g transform="matrix( 1, 0, 0, 1, 0,0) ">
<use xlink:href="#Layer0_88_FILL"/>
</g>

<g transform="matrix( 1, 0, 0, 1, 0,0) ">
<use xlink:href="#Layer0_89_FILL"/>
</g>

<g transform="matrix( 1, 0, 0, 1, 0,0) ">
<use xlink:href="#Layer0_90_FILL"/>
</g>

<g transform="matrix( 1, 0, 0, 1, 0,0) ">
<use xlink:href="#Layer0_91_FILL"/>
</g>

<g transform="matrix( 1, 0, 0, 1, 0,0) ">
<use xlink:href="#Layer0_92_FILL"/>
</g>

<g transform="matrix( 1, 0, 0, 1, 0,0) ">
<use xlink:href="#Layer0_93_FILL"/>
</g>

<g transform="matrix( 1, 0, 0, 1, 0,0) ">
<use xlink:href="#Layer0_94_FILL"/>
</g>
</svg>
